<svg width="413" height="171" viewBox="0 0 413 171" fill="none" xmlns="http://www.w3.org/2000/svg">
<path opacity="0.2" d="M160.313 74.8125V96.1875C160.313 99.022 159.186 101.74 157.182 103.745C155.178 105.749 152.46 106.875 149.625 106.875H144.281L132.191 140.734C131.82 141.773 131.137 142.672 130.235 143.307C129.334 143.942 128.257 144.282 127.155 144.281H118.658C117.555 144.282 116.479 143.942 115.577 143.307C114.675 142.672 113.992 141.773 113.621 140.734L111.077 133.594H65.2672L62.7223 140.734C62.3514 141.773 61.6683 142.672 60.7665 143.307C59.8648 143.942 58.7887 144.282 57.6858 144.281H49.1892C48.0863 144.282 47.0102 143.942 46.1085 143.307C45.2067 142.672 44.5236 141.773 44.1527 140.734L35.4023 116.227C26.367 106.389 21.3601 93.5137 21.375 80.1562C21.375 65.9837 27.005 52.3917 37.0265 42.3702C47.048 32.3488 60.64 26.7188 74.8125 26.7188H96.1875C106.615 26.7157 116.816 29.7637 125.532 35.4869C134.249 41.2102 141.101 49.3587 145.243 58.9282C145.976 60.6267 146.622 62.3612 147.18 64.125H149.625C152.46 64.125 155.178 65.251 157.182 67.2553C159.186 69.2596 160.313 71.978 160.313 74.8125Z" fill="#4ADE80"/>
<path d="M128.25 77.4844C128.25 79.0697 127.78 80.6195 126.899 81.9376C126.018 83.2558 124.766 84.2832 123.302 84.8898C121.837 85.4965 120.225 85.6553 118.671 85.346C117.116 85.0367 115.687 84.2733 114.566 83.1523C113.445 82.0313 112.682 80.603 112.373 79.0481C112.063 77.4933 112.222 75.8816 112.829 74.4169C113.436 72.9523 114.463 71.7004 115.781 70.8196C117.099 69.9389 118.649 69.4688 120.234 69.4688C122.36 69.4688 124.399 70.3132 125.902 71.8165C127.405 73.3197 128.25 75.3585 128.25 77.4844ZM101.531 42.75H74.8125C73.3952 42.75 72.036 43.313 71.0339 44.3151C70.0317 45.3173 69.4687 46.6765 69.4687 48.0938C69.4687 49.511 70.0317 50.8702 71.0339 51.8724C72.036 52.8745 73.3952 53.4375 74.8125 53.4375H101.531C102.948 53.4375 104.308 52.8745 105.31 51.8724C106.312 50.8702 106.875 49.511 106.875 48.0938C106.875 46.6765 106.312 45.3173 105.31 44.3151C104.308 43.313 102.948 42.75 101.531 42.75ZM165.656 74.8125V96.1875C165.656 100.439 163.967 104.517 160.961 107.523C157.954 110.53 153.877 112.219 149.625 112.219H148.049L137.221 142.531C136.479 144.607 135.114 146.404 133.312 147.674C131.51 148.944 129.359 149.625 127.155 149.625H118.658C116.453 149.625 114.303 148.944 112.5 147.674C110.698 146.404 109.333 144.607 108.592 142.531L107.309 138.938H69.0346L67.7521 142.531C67.0107 144.607 65.6455 146.404 63.8433 147.674C62.0412 148.944 59.8904 149.625 57.6858 149.625H49.1892C46.9846 149.625 44.8338 148.944 43.0317 147.674C41.2295 146.404 39.8642 144.607 39.1229 142.531L30.7266 119.045C22.7389 110.005 17.7373 98.7189 16.4053 86.7291C14.6808 87.6349 13.2366 88.9948 12.2288 90.6618C11.2211 92.3288 10.6881 94.2395 10.6875 96.1875C10.6875 97.6048 10.1245 98.964 9.12235 99.9661C8.1202 100.968 6.761 101.531 5.34375 101.531C3.9265 101.531 2.5673 100.968 1.56515 99.9661C0.563001 98.964 0 97.6048 0 96.1875C0.0081651 91.422 1.60862 86.7959 4.54709 83.0441C7.48556 79.2923 11.5935 76.6301 16.2183 75.4805C17.4121 60.7539 24.1005 47.0149 34.9553 36.9916C45.8102 26.9683 60.0377 21.3938 74.8125 21.375H144.281C145.698 21.375 147.058 21.938 148.06 22.9401C149.062 23.9423 149.625 25.3015 149.625 26.7188C149.625 28.136 149.062 29.4952 148.06 30.4974C147.058 31.4995 145.698 32.0625 144.281 32.0625H129.993C138.862 38.2846 145.836 46.8382 150.146 56.7773C150.433 57.4453 150.714 58.1133 150.981 58.7812C154.993 59.1218 158.731 60.9601 161.45 63.9304C164.169 66.9007 165.671 70.7856 165.656 74.8125ZM154.969 74.8125C154.969 73.3952 154.406 72.036 153.404 71.0339C152.401 70.0318 151.042 69.4688 149.625 69.4688H147.18C146.042 69.47 144.933 69.1078 144.015 68.4349C143.098 67.7621 142.418 66.8138 142.077 65.7281C139.015 55.958 132.912 47.4219 124.656 41.3656C116.401 35.3093 106.426 32.0497 96.1875 32.0625H74.8125C65.4791 32.062 56.3472 34.7773 48.5304 39.8773C40.7136 44.9774 34.5496 52.2417 30.7902 60.7845C27.0308 69.3273 25.8383 78.7794 27.3582 87.9882C28.8782 97.197 33.0448 105.765 39.35 112.646C39.8322 113.171 40.2046 113.786 40.4455 114.456L49.1892 138.938H57.6858L60.2374 131.797C60.6079 130.759 61.29 129.862 62.1904 129.227C63.0908 128.592 64.1655 128.251 65.2672 128.25H111.077C112.178 128.251 113.253 128.592 114.153 129.227C115.054 129.862 115.736 130.759 116.106 131.797L118.658 138.938H127.155L139.251 105.078C139.622 104.041 140.304 103.143 141.204 102.508C142.105 101.873 143.179 101.532 144.281 101.531H149.625C151.042 101.531 152.401 100.968 153.404 99.9661C154.406 98.964 154.969 97.6048 154.969 96.1875V74.8125Z" fill="#16A34A"/>
<path d="M233.976 68H219.768L225.656 40.352L210.488 68H201.784L198.904 39.392L192.76 68H187L195.64 27.36H211.96L213.944 50.272L226.232 27.36H242.68L233.976 68ZM245.608 42.848C247.784 41.7813 250.003 41.0133 252.264 40.544C254.568 40.032 257.128 39.776 259.944 39.776C262.675 39.776 264.936 39.9893 266.728 40.416C268.52 40.8427 269.949 41.4613 271.016 42.272C272.083 43.0827 272.829 44.0427 273.256 45.152C273.683 46.2613 273.896 47.52 273.896 48.928C273.896 49.7387 273.832 50.6133 273.704 51.552C273.619 52.4907 273.512 53.28 273.384 53.92L270.376 68H260.072L258.92 63.904H258.536C257.171 65.3973 255.571 66.5493 253.736 67.36C251.944 68.128 250.152 68.512 248.36 68.512C247.336 68.512 246.333 68.3627 245.352 68.064C244.371 67.7653 243.496 67.3173 242.728 66.72C241.96 66.08 241.341 65.2907 240.872 64.352C240.403 63.3707 240.168 62.1973 240.168 60.832C240.168 58.6133 240.765 56.864 241.96 55.584C243.197 54.2613 244.797 53.28 246.76 52.64C248.765 51.9573 251.005 51.5307 253.48 51.36C255.997 51.1893 258.515 51.104 261.032 51.104C261.117 50.6773 261.224 50.08 261.352 49.312C261.48 48.5013 261.544 47.7973 261.544 47.2C261.544 46.432 261.331 45.728 260.904 45.088C260.52 44.4053 259.688 44.064 258.408 44.064C256.915 44.064 255.805 44.512 255.08 45.408C254.397 46.2613 253.949 47.3067 253.736 48.544H244.392L245.608 42.848ZM260.328 54.112H259.176C257.939 54.112 256.872 54.2827 255.976 54.624C255.123 54.9227 254.419 55.328 253.864 55.84C253.352 56.352 252.968 56.928 252.712 57.568C252.456 58.208 252.328 58.848 252.328 59.488C252.328 60.512 252.584 61.28 253.096 61.792C253.651 62.304 254.291 62.56 255.016 62.56C255.912 62.56 256.787 62.24 257.64 61.6C258.536 60.96 259.091 60.1067 259.304 59.04L260.328 54.112ZM292.121 52.128L307.033 40.48H315.481L302.745 50.912L312.281 68H297.945L291.417 55.136L288.729 68H275.672L284.76 24.992H297.881L292.121 52.128ZM326.827 55.136C326.656 56.0747 326.528 56.9707 326.443 57.824C326.4 58.6773 326.379 59.4453 326.379 60.128C326.379 60.512 326.4 60.9387 326.443 61.408C326.486 61.8773 326.571 62.3253 326.699 62.752C326.87 63.136 327.083 63.4773 327.339 63.776C327.638 64.032 328.043 64.16 328.555 64.16C328.939 64.16 329.366 64.032 329.835 63.776C330.347 63.52 330.838 63.1573 331.307 62.688C331.819 62.2187 332.288 61.6427 332.715 60.96C333.184 60.2773 333.547 59.5093 333.803 58.656H344.299L342.635 65.504C341.782 66.0587 340.8 66.528 339.691 66.912C338.582 67.296 337.408 67.616 336.171 67.872C334.934 68.0853 333.675 68.2347 332.395 68.32C331.115 68.448 329.899 68.512 328.747 68.512C326.614 68.512 324.63 68.32 322.795 67.936C320.96 67.552 319.36 66.8907 317.995 65.952C316.63 65.0133 315.542 63.776 314.731 62.24C313.963 60.6613 313.579 58.72 313.579 56.416C313.579 54.3253 313.899 52.2773 314.539 50.272C315.222 48.2667 316.331 46.496 317.867 44.96C319.446 43.3813 321.536 42.1227 324.139 41.184C326.784 40.2453 330.07 39.776 333.995 39.776C338.262 39.776 341.462 40.4373 343.595 41.76C345.771 43.0827 346.859 45.152 346.859 47.968C346.859 49.12 346.688 50.3787 346.347 51.744C346.006 53.0667 345.494 54.1973 344.811 55.136H326.827ZM335.339 47.52C335.339 46.1973 335.126 45.3013 334.699 44.832C334.272 44.3627 333.76 44.128 333.163 44.128C332.48 44.128 331.84 44.3627 331.243 44.832C330.688 45.2587 330.176 45.856 329.707 46.624C329.238 47.3493 328.811 48.2027 328.427 49.184C328.043 50.1227 327.723 51.1253 327.467 52.192H334.763C334.848 51.68 334.934 51.1467 335.019 50.592C335.104 50.1227 335.168 49.6107 335.211 49.056C335.296 48.5013 335.339 47.9893 335.339 47.52ZM372.477 68H359.485L365.309 40.48H378.429L372.477 68ZM380.093 32.096C380.093 33.0773 379.88 33.9307 379.453 34.656C379.069 35.3813 378.536 36 377.853 36.512C377.213 37.024 376.466 37.408 375.613 37.664C374.76 37.92 373.885 38.048 372.989 38.048C371.282 38.048 369.853 37.6427 368.701 36.832C367.549 36.0213 366.973 34.7413 366.973 32.992C366.973 32.0533 367.165 31.2213 367.549 30.496C367.933 29.728 368.445 29.1093 369.085 28.64C369.768 28.128 370.536 27.744 371.389 27.488C372.285 27.232 373.202 27.104 374.141 27.104C375.805 27.104 377.213 27.5093 378.365 28.32C379.517 29.1307 380.093 30.3893 380.093 32.096ZM381.819 40.48C383.398 40.1387 384.784 39.7547 385.979 39.328C387.174 38.9013 388.262 38.368 389.243 37.728C390.267 37.088 391.227 36.2987 392.123 35.36C393.062 34.4213 394.064 33.2693 395.131 31.904H401.723L399.867 40.48H404.859L404.027 44.768H398.971L396.347 57.248C396.134 58.2293 395.963 59.104 395.835 59.872C395.707 60.64 395.643 61.2373 395.643 61.664C395.643 62.5173 395.942 63.0507 396.539 63.264C397.179 63.4773 398.352 63.584 400.059 63.584L399.099 68C398.8 68.0853 398.331 68.1493 397.691 68.192C397.094 68.2347 396.411 68.2773 395.643 68.32C394.918 68.4053 394.15 68.448 393.339 68.448C392.571 68.4907 391.888 68.512 391.291 68.512C390.224 68.512 389.179 68.4267 388.155 68.256C387.131 68.128 386.214 67.8507 385.403 67.424C384.592 66.9547 383.931 66.2933 383.419 65.44C382.95 64.5867 382.715 63.4347 382.715 61.984C382.715 61.472 382.736 60.832 382.779 60.064C382.864 59.296 383.014 58.4427 383.227 57.504L385.915 44.768H380.923L381.819 40.48ZM226.872 118.024C226.872 120.541 226.168 122.867 224.76 125C223.352 127.133 221.027 128.755 217.784 129.864L225.208 149H210.936L205.304 131.272H204.6L200.824 149H187L195.64 108.36H212.472C214.435 108.36 216.291 108.488 218.04 108.744C219.789 108.957 221.304 109.427 222.584 110.152C223.907 110.835 224.952 111.816 225.72 113.096C226.488 114.333 226.872 115.976 226.872 118.024ZM208.44 127.176C209.549 127.176 210.488 126.813 211.256 126.088C212.067 125.32 212.707 124.403 213.176 123.336C213.688 122.269 214.051 121.139 214.264 119.944C214.477 118.707 214.584 117.64 214.584 116.744C214.584 115.635 214.392 114.696 214.008 113.928C213.624 113.117 212.792 112.712 211.512 112.712H208.632L205.432 127.176H208.44ZM232.108 123.848C234.284 122.781 236.503 122.013 238.764 121.544C241.068 121.032 243.628 120.776 246.444 120.776C249.175 120.776 251.436 120.989 253.228 121.416C255.02 121.843 256.449 122.461 257.516 123.272C258.583 124.083 259.329 125.043 259.756 126.152C260.183 127.261 260.396 128.52 260.396 129.928C260.396 130.739 260.332 131.613 260.204 132.552C260.119 133.491 260.012 134.28 259.884 134.92L256.876 149H246.572L245.42 144.904H245.036C243.671 146.397 242.071 147.549 240.236 148.36C238.444 149.128 236.652 149.512 234.86 149.512C233.836 149.512 232.833 149.363 231.852 149.064C230.871 148.765 229.996 148.317 229.228 147.72C228.46 147.08 227.841 146.291 227.372 145.352C226.903 144.371 226.668 143.197 226.668 141.832C226.668 139.613 227.265 137.864 228.46 136.584C229.697 135.261 231.297 134.28 233.26 133.64C235.265 132.957 237.505 132.531 239.98 132.36C242.497 132.189 245.015 132.104 247.532 132.104C247.617 131.677 247.724 131.08 247.852 130.312C247.98 129.501 248.044 128.797 248.044 128.2C248.044 127.432 247.831 126.728 247.404 126.088C247.02 125.405 246.188 125.064 244.908 125.064C243.415 125.064 242.305 125.512 241.58 126.408C240.897 127.261 240.449 128.307 240.236 129.544H230.892L232.108 123.848ZM246.828 135.112H245.676C244.439 135.112 243.372 135.283 242.476 135.624C241.623 135.923 240.919 136.328 240.364 136.84C239.852 137.352 239.468 137.928 239.212 138.568C238.956 139.208 238.828 139.848 238.828 140.488C238.828 141.512 239.084 142.28 239.596 142.792C240.151 143.304 240.791 143.56 241.516 143.56C242.412 143.56 243.287 143.24 244.14 142.6C245.036 141.96 245.591 141.107 245.804 140.04L246.828 135.112ZM275.165 149H262.172L267.997 121.48H281.117L275.165 149ZM282.781 113.096C282.781 114.077 282.567 114.931 282.141 115.656C281.757 116.381 281.223 117 280.541 117.512C279.901 118.024 279.154 118.408 278.301 118.664C277.447 118.92 276.573 119.048 275.677 119.048C273.97 119.048 272.541 118.643 271.389 117.832C270.237 117.021 269.661 115.741 269.661 113.992C269.661 113.053 269.853 112.221 270.237 111.496C270.621 110.728 271.133 110.109 271.773 109.64C272.455 109.128 273.223 108.744 274.077 108.488C274.973 108.232 275.89 108.104 276.829 108.104C278.493 108.104 279.901 108.509 281.053 109.32C282.205 110.131 282.781 111.389 282.781 113.096ZM298.715 125.576C299.611 124.723 300.613 123.933 301.723 123.208C302.704 122.611 303.856 122.056 305.179 121.544C306.501 121.032 307.973 120.776 309.595 120.776C311.813 120.776 313.648 121.352 315.099 122.504C316.549 123.613 317.275 125.149 317.275 127.112C317.275 127.667 317.211 128.349 317.083 129.16C316.955 129.928 316.805 130.739 316.635 131.592C316.464 132.445 316.272 133.32 316.059 134.216C315.888 135.069 315.739 135.837 315.611 136.52L312.923 149H299.931L303.451 132.296C303.536 131.741 303.643 131.187 303.771 130.632C303.899 130.035 303.963 129.501 303.963 129.032C303.963 128.392 303.792 127.88 303.451 127.496C303.152 127.069 302.683 126.856 302.043 126.856C301.275 126.856 300.528 127.133 299.803 127.688C299.12 128.243 298.587 128.712 298.203 129.096L293.979 149H280.922L286.747 121.48H297.179L298.331 125.576H298.715Z" fill="#16A34A"/>
<path d="M371 119C369.022 119 367.089 119.586 365.444 120.685C363.8 121.784 362.518 123.346 361.761 125.173C361.004 127 360.806 129.011 361.192 130.951C361.578 132.891 362.53 134.673 363.929 136.071C365.327 137.47 367.109 138.422 369.049 138.808C370.989 139.194 373 138.996 374.827 138.239C376.654 137.482 378.216 136.2 379.315 134.556C380.414 132.911 381 130.978 381 129C381 126.348 379.946 123.804 378.071 121.929C376.196 120.054 373.652 119 371 119ZM371 135C369.813 135 368.653 134.648 367.667 133.989C366.68 133.33 365.911 132.392 365.457 131.296C365.003 130.2 364.884 128.993 365.115 127.829C365.347 126.666 365.918 125.596 366.757 124.757C367.596 123.918 368.666 123.347 369.829 123.115C370.993 122.884 372.2 123.003 373.296 123.457C374.392 123.911 375.33 124.68 375.989 125.667C376.648 126.653 377 127.813 377 129C377 130.591 376.368 132.117 375.243 133.243C374.117 134.368 372.591 135 371 135ZM399 111H343C342.47 111 341.961 111.211 341.586 111.586C341.211 111.961 341 112.47 341 113V145C341 145.53 341.211 146.039 341.586 146.414C341.961 146.789 342.47 147 343 147H399C399.53 147 400.039 146.789 400.414 146.414C400.789 146.039 401 145.53 401 145V113C401 112.47 400.789 111.961 400.414 111.586C400.039 111.211 399.53 111 399 111ZM387.412 143H354.587C353.916 140.729 352.687 138.662 351.012 136.988C349.338 135.313 347.271 134.084 345 133.412V124.587C347.271 123.916 349.338 122.687 351.012 121.012C352.687 119.338 353.916 117.271 354.587 115H387.412C388.084 117.271 389.313 119.338 390.988 121.012C392.662 122.687 394.729 123.916 397 124.587V133.412C394.729 134.084 392.662 135.313 390.988 136.988C389.313 138.662 388.084 140.729 387.412 143ZM397 120.343C394.601 119.311 392.689 117.399 391.658 115H397V120.343ZM350.342 115C349.311 117.399 347.399 119.311 345 120.343V115H350.342ZM345 137.658C347.399 138.689 349.311 140.601 350.342 143H345V137.658ZM391.658 143C392.689 140.601 394.601 138.689 397 137.658V143H391.658Z" fill="#16A34A"/>
</svg>
